<svg width="151" height="161" viewBox="0 0 151 161" fill="none" xmlns="http://www.w3.org/2000/svg">
<path d="M76.901 15.9159C78.3668 13.4527 80.0706 11.4438 80.8343 9.12531C83.3707 1.42452 88.651 -0.108207 96.2376 0.176049C112.048 0.768471 127.897 0.352059 143.729 0.373917C145.542 0.376419 147.404 0.088623 150.296 1.53791C125.377 44.115 100.504 86.6127 75.501 129.332C72.3058 127.164 71.3501 124.207 69.8468 121.714C65.8034 115.01 62.1275 108.078 57.9155 101.485C55.7385 98.0781 55.4923 95.2603 57.7864 91.9193C59.7309 89.0875 61.2699 85.9773 63.2971 82.4535C68.3241 87.803 70.4996 94.2316 75.0783 100.181C91.595 72.0088 107.767 44.4251 124.581 15.7465C114.15 15.7465 105.06 15.7054 95.9707 15.7789C93.9954 15.7949 93.3495 17.6133 92.5349 19.0475C76.2455 47.73 59.9926 76.4333 43.6225 105.07C42.1419 107.66 42.5181 109.534 43.9869 111.895C50.3231 122.08 56.3938 132.432 62.7785 142.586C64.704 145.649 65.1218 148.212 62.8464 151.194C60.6741 154.041 59.6169 157.677 57.0983 160.124C55.143 159.729 54.7637 158.345 54.0897 157.236C45.1754 142.574 36.3163 127.878 27.3043 113.276C25.2402 109.932 25.1591 107.199 27.1922 103.644C43.8175 74.5742 60.2306 45.3829 76.901 15.9159Z" fill="url(#paint0_linear_950_25)"/>
<path d="M32.0938 56.9752C21.2834 38.4512 10.6588 20.2425 0 1.975C8.69244 -1.96808 16.1019 0.106375 20.2563 7.18558C28.3463 20.9714 36.2344 34.8808 44.6042 48.4944C47.3867 53.0203 48.1085 56.763 44.7065 61.0835C42.9103 63.3646 42.1696 66.4145 39.7572 68.7864C36.351 65.186 34.5604 61.0724 32.0938 56.9752Z" fill="url(#paint1_linear_950_25)"/>
<defs>
<linearGradient id="paint0_linear_950_25" x1="88.0036" y1="0.144531" x2="88.0036" y2="160.124" gradientUnits="userSpaceOnUse">
<stop stop-color="#FB923C"/>
<stop offset="1" stop-color="#EA580C"/>
</linearGradient>
<linearGradient id="paint1_linear_950_25" x1="5.09522" y1="-0.468751" x2="44.0952" y2="58.0312" gradientUnits="userSpaceOnUse">
<stop stop-color="#FB923C"/>
<stop offset="1" stop-color="#EA580C"/>
</linearGradient>
</defs>
</svg>
